<?xml version="1.0" standalone="no"?>
<!DOCTYPE svg PUBLIC "-//W3C//DTD SVG 20010904//EN"
 "http://www.w3.org/TR/2001/REC-SVG-20010904/DTD/svg10.dtd">
<svg version="1.0" xmlns="http://www.w3.org/2000/svg"
 width="1200.000000pt" height="1200.000000pt" viewBox="0 0 1200.000000 1200.000000"
 preserveAspectRatio="xMidYMid meet">
<metadata>
Created by potrace 1.11, written by Peter Selinger 2001-2013
</metadata>
<g transform="translate(0.000000,1200.000000) scale(0.100000,-0.100000)"
fill="#000000" stroke="none">
<path d="M0 6000 l0 -6000 6000 0 6000 0 0 6000 0 6000 -6000 0 -6000 0 0
-6000z m8123 3392 l237 -237 0 -1900 0 -1900 -237 -237 -238 -238 -1900 0
-1900 0 -235 235 -234 234 -3 1898 -4 1897 243 243 243 243 1895 0 1895 0 238
-238z m-2323 -5522 l0 -291 47 58 c26 32 76 93 111 136 l64 77 130 0 130 0
-54 -62 c-29 -35 -91 -107 -137 -161 l-83 -97 63 -98 c34 -53 97 -149 139
-212 42 -63 80 -121 84 -127 6 -10 -20 -13 -116 -13 l-123 0 -85 136 c-47 75
-88 141 -92 148 -5 7 -20 -1 -43 -24 l-35 -34 0 -113 0 -113 -110 0 -110 0 0
540 0 540 110 0 110 0 0 -290z m980 -250 l0 -540 -108 0 -109 0 0 540 0 540
109 0 108 0 0 -540z m-4220 285 l0 -205 200 0 200 0 0 205 0 205 110 0 110 0
0 -515 0 -515 -110 0 -110 0 0 220 0 220 -200 0 -200 0 0 -220 0 -220 -110 0
-110 0 0 515 0 515 110 0 110 0 0 -205z m1481 -72 c132 -59 209 -195 209 -368
0 -173 -76 -307 -209 -369 -38 -17 -65 -21 -151 -21 -99 0 -109 2 -173 33 -79
39 -133 100 -168 189 -32 82 -32 253 -1 333 43 109 116 182 218 214 70 22 214
17 275 -11z m1010 0 c132 -59 209 -195 209 -368 0 -173 -76 -307 -209 -369
-38 -17 -65 -21 -151 -21 -99 0 -109 2 -173 33 -79 39 -133 100 -168 189 -32
82 -32 253 -1 333 43 109 116 182 218 214 70 22 214 17 275 -11z m2589 -2 c57
-29 116 -85 142 -135 26 -51 48 -156 48 -233 l0 -63 -240 0 c-263 0 -257 1
-226 -58 23 -43 68 -79 114 -92 61 -16 142 2 187 42 19 16 39 28 44 26 5 -1
29 -28 55 -57 l46 -55 -36 -37 c-113 -116 -344 -132 -488 -35 -109 74 -156
173 -156 327 0 189 85 328 232 381 75 26 215 21 278 -11z m925 8 c82 -25 153
-90 173 -155 22 -76 24 -74 -93 -74 -92 0 -106 2 -111 18 -21 63 -64 89 -131
79 -48 -8 -73 -33 -73 -72 0 -46 24 -62 140 -90 167 -42 223 -74 259 -149 56
-114 4 -233 -129 -295 -49 -23 -67 -26 -170 -26 -96 0 -123 4 -161 21 -89 41
-162 126 -170 199 l-4 30 103 3 c98 3 102 2 102 -18 0 -35 51 -77 103 -85 87
-13 149 27 133 88 -7 30 -44 49 -155 77 -137 35 -223 91 -250 163 -31 82 7
194 84 247 89 61 228 77 350 39z m950 0 c82 -25 153 -90 173 -155 22 -76 24
-74 -93 -74 -92 0 -106 2 -111 18 -21 63 -64 89 -131 79 -48 -8 -73 -33 -73
-72 0 -46 24 -62 140 -90 167 -42 223 -74 259 -149 56 -114 4 -233 -129 -295
-49 -23 -67 -26 -170 -26 -96 0 -123 4 -161 21 -89 41 -162 126 -170 199 l-4
30 103 3 c98 3 102 2 102 -18 0 -35 51 -77 103 -85 87 -13 149 27 133 88 -7
30 -44 49 -155 77 -137 35 -223 91 -250 163 -31 82 7 194 84 247 89 61 228 77
350 39z"/>
<path d="M4570 7250 l0 -1420 1420 0 1420 0 0 1420 0 1420 -1420 0 -1420 0 0
-1420z"/>
<path d="M3846 3680 c-75 -23 -111 -109 -104 -245 7 -127 54 -189 145 -189 98
0 136 56 141 205 3 82 1 104 -19 148 -29 69 -94 101 -163 81z"/>
<path d="M4856 3680 c-75 -23 -111 -109 -104 -245 7 -127 54 -189 145 -189 98
0 136 56 141 205 3 82 1 104 -19 148 -29 69 -94 101 -163 81z"/>
<path d="M7447 3680 c-40 -12 -57 -29 -78 -75 -31 -66 -33 -65 116 -65 l135 0
-7 33 c-8 44 -30 85 -51 95 -28 15 -85 21 -115 12z"/>
</g>
</svg>
